# This file uses centimeters as units for non-parametric coordinates.

mtllib SidesLow.mtl
g default
v -3.504919 0.030596 1.261205
v -2.336613 0.030599 1.338796
v -1.168306 0.030599 1.338796
v 0.000000 0.030599 1.338796
v 1.168307 0.030599 1.338796
v 2.336613 0.030599 1.338796
v 3.504919 0.030597 1.184607
v -3.504919 0.353057 0.697026
v -2.336613 0.442768 0.774616
v -1.168306 0.442768 0.774616
v 0.000000 0.442768 0.774616
v 1.168307 0.442768 0.774616
v 2.336613 0.442768 0.774616
v 3.504919 0.379530 0.620427
v -3.504919 1.132412 -0.103501
v -2.336613 1.385178 -0.025911
v -1.168306 1.385178 -0.025911
v 0.000000 1.385178 -0.025911
v 1.168307 1.385178 -0.025911
v 2.336613 1.385178 -0.025911
v 3.504919 1.158886 -0.180099
v -3.504919 1.454961 -0.953821
v -2.336613 1.707727 -0.876231
v -1.168306 1.707727 -0.876231
v 0.000000 1.707727 -0.876231
v 1.168307 1.707727 -0.876231
v 2.336613 1.707727 -0.876231
v 3.504919 1.481434 -1.030419
v -3.504919 1.420774 -1.789163
v -2.336613 1.544273 -1.711574
v -1.168306 1.544273 -1.711574
v 0.000000 1.544273 -1.711574
v 1.168307 1.544273 -1.711574
v 2.336613 1.544273 -1.711574
v 3.504919 1.433708 -1.865763
v -3.504919 0.002303 1.728060
v -2.336613 0.002306 1.805651
v -1.168306 0.002306 1.805651
v 0.000000 0.002306 1.805651
v 1.168307 0.002306 1.805651
v 2.336613 0.002306 1.805651
v 3.504919 0.002303 1.651462
v -3.504919 1.482523 -2.661124
v -2.336613 1.482524 -2.661124
v -1.168306 1.482524 -2.661124
v 0.000000 1.482524 -2.661124
v 1.168307 1.482524 -2.661124
v 2.336613 1.482524 -2.661124
v 3.504919 1.482523 -2.661126
vt 0.032852 0.215006
vt 0.188766 0.203685
vt 0.189291 0.291773
vt 0.033001 0.298701
vt 0.345475 0.202645
vt 0.345707 0.290666
vt 0.502003 0.203309
vt 0.501353 0.291526
vt 0.658489 0.205271
vt 0.656983 0.293367
vt 0.815273 0.208619
vt 0.813058 0.296859
vt 0.971334 0.231573
vt 0.969901 0.316648
vt 0.193081 0.440635
vt 0.035681 0.438120
vt 0.346259 0.441203
vt 0.500041 0.442330
vt 0.653856 0.443666
vt 0.806864 0.446171
vt 0.963869 0.456995
vt 0.191875 0.557297
vt 0.035321 0.559524
vt 0.344997 0.560071
vt 0.498871 0.561558
vt 0.652731 0.562624
vt 0.806135 0.562974
vt 0.962295 0.578281
vt 0.187065 0.668658
vt 0.030874 0.671877
vt 0.342585 0.672492
vt 0.497779 0.674409
vt 0.652969 0.675277
vt 0.808685 0.674109
vt 0.964768 0.690556
vt 0.032740 0.152867
vt 0.188575 0.141606
vt 0.345412 0.140624
vt 0.502436 0.141239
vt 0.659392 0.143213
vt 0.816194 0.146498
vt 0.971925 0.169438
vt 0.182908 0.794717
vt 0.026999 0.788188
vt 0.339890 0.798729
vt 0.496609 0.800828
vt 0.653408 0.801524
vt 0.810458 0.799992
vt 0.966387 0.796545
vn -0.044602 0.929078 0.367185
vn -0.020905 0.928315 0.371207
vn -0.058879 0.725071 0.686153
vn -0.119431 0.737657 0.664528
vn 0.000000 0.919600 0.392856
vn 0.000000 0.709735 0.704468
vn 0.000000 0.919600 0.392856
vn 0.000000 0.709735 0.704468
vn 0.000000 0.919600 0.392856
vn 0.000000 0.709735 0.704468
vn 0.029294 0.927950 0.371553
vn 0.072953 0.723998 0.685933
vn 0.065572 0.920000 0.386394
vn 0.150833 0.728128 0.668640
vn -0.091048 0.802627 0.589492
vn -0.182474 0.794395 0.579344
vn 0.000000 0.793767 0.608223
vn 0.000000 0.793766 0.608223
vn 0.000000 0.793766 0.608223
vn 0.099802 0.799217 0.592699
vn 0.202627 0.796441 0.569759
vn -0.096520 0.988608 0.115488
vn -0.191721 0.973486 0.124769
vn 0.000000 0.995576 0.093964
vn 0.000000 0.995576 0.093964
vn 0.000000 0.995576 0.093964
vn 0.092415 0.988616 0.118735
vn 0.178577 0.977638 0.111059
vn -0.050868 0.994396 -0.092676
vn -0.098174 0.993712 -0.053834
vn 0.000000 0.992134 -0.125179
vn 0.000000 0.992134 -0.125179
vn 0.000000 0.992134 -0.125179
vn 0.043729 0.994168 -0.098581
vn 0.082498 0.994762 -0.060359
vn -0.004020 0.998161 0.060492
vn -0.001967 0.998167 0.060492
vn 0.000000 0.998169 0.060492
vn 0.000000 0.998169 0.060492
vn 0.000000 0.998169 0.060492
vn 0.003819 0.998161 0.060492
vn 0.007985 0.998137 0.060490
vn -0.025853 0.999116 -0.033164
vn -0.052781 0.998606 0.000000
vn 0.000000 0.997892 -0.064893
vn 0.000000 0.997892 -0.064893
vn 0.000000 0.997892 -0.064893
vn 0.022403 0.999049 -0.037405
vn 0.046777 0.998878 -0.007404
s 1
g pPlane2
usemtl initialShadingGroup
f 1/1/1 2/2/2 9/3/3 8/4/4
f 2/2/2 3/5/5 10/6/6 9/3/3
f 3/5/5 4/7/7 11/8/8 10/6/6
f 4/7/7 5/9/9 12/10/10 11/8/8
f 5/9/9 6/11/11 13/12/12 12/10/10
f 6/11/11 7/13/13 14/14/14 13/12/12
f 8/4/4 9/3/3 16/15/15 15/16/16
f 9/3/3 10/6/6 17/17/17 16/15/15
f 10/6/6 11/8/8 18/18/18 17/17/17
f 11/8/8 12/10/10 19/19/19 18/18/18
f 12/10/10 13/12/12 20/20/20 19/19/19
f 13/12/12 14/14/14 21/21/21 20/20/20
f 15/16/16 16/15/15 23/22/22 22/23/23
f 16/15/15 17/17/17 24/24/24 23/22/22
f 17/17/17 18/18/18 25/25/25 24/24/24
f 18/18/18 19/19/19 26/26/26 25/25/25
f 19/19/19 20/20/20 27/27/27 26/26/26
f 20/20/20 21/21/21 28/28/28 27/27/27
f 22/23/23 23/22/22 30/29/29 29/30/30
f 23/22/22 24/24/24 31/31/31 30/29/29
f 24/24/24 25/25/25 32/32/32 31/31/31
f 25/25/25 26/26/26 33/33/33 32/32/32
f 26/26/26 27/27/27 34/34/34 33/33/33
f 27/27/27 28/28/28 35/35/35 34/34/34
f 2/2/2 1/1/1 36/36/36 37/37/37
f 3/5/5 2/2/2 37/37/37 38/38/38
f 4/7/7 3/5/5 38/38/38 39/39/39
f 5/9/9 4/7/7 39/39/39 40/40/40
f 6/11/11 5/9/9 40/40/40 41/41/41
f 7/13/13 6/11/11 41/41/41 42/42/42
f 29/30/30 30/29/29 44/43/43 43/44/44
f 30/29/29 31/31/31 45/45/45 44/43/43
f 31/31/31 32/32/32 46/46/46 45/45/45
f 32/32/32 33/33/33 47/47/47 46/46/46
f 33/33/33 34/34/34 48/48/48 47/47/47
f 34/34/34 35/35/35 49/49/49 48/48/48
